<svg width="25" height="26" viewBox="0 0 25 26" fill="none" xmlns="http://www.w3.org/2000/svg">
<g clip-path="url(#clip0_60_5)">
<path fill-rule="evenodd" clip-rule="evenodd" d="M12.4999 25.3657C10.0277 25.3657 7.61091 24.6329 5.5553 23.26C3.49968 21.887 1.89754 19.9356 0.95144 17.6526C0.00534507 15.3695 -0.242214 12.8572 0.240101 10.4335C0.722416 8.00978 1.91294 5.78346 3.6611 4.03606C5.40925 2.28866 7.63653 1.09866 10.0613 0.616553C12.4861 0.134446 14.9994 0.381873 17.2835 1.32756C19.5676 2.27325 21.5198 3.87472 22.8933 5.92944C24.2668 7.98417 24.9999 10.3999 24.9999 12.8711C24.9999 16.1849 23.683 19.3629 21.3388 21.7061C18.9946 24.0493 15.8151 25.3657 12.4999 25.3657ZM5.42242 15.6886C5.15362 15.417 5.00285 15.0503 5.00285 14.6682C5.00285 14.2861 5.15362 13.9195 5.42242 13.6478L6.15827 12.9165C6.28341 12.7903 6.43262 12.6905 6.59709 12.623C6.76156 12.5555 6.93792 12.5218 7.11569 12.5238C7.29345 12.5258 7.46899 12.5634 7.63192 12.6345C7.79484 12.7056 7.94181 12.8087 8.0641 12.9377L9.36409 14.2859C9.42608 14.3513 9.50074 14.4033 9.58352 14.4389C9.66629 14.4745 9.75545 14.4928 9.84556 14.4928C9.93566 14.4928 10.0248 14.4745 10.1076 14.4389C10.1904 14.4033 10.265 14.3513 10.327 14.2859L16.952 7.45966C17.0752 7.32977 17.2234 7.22613 17.3876 7.15496C17.5519 7.08379 17.7289 7.04656 17.9079 7.04551C18.087 7.04446 18.2644 7.0796 18.4295 7.14885C18.5946 7.21809 18.744 7.31999 18.8687 7.44842L19.5833 8.1706C19.8455 8.44114 19.9921 8.80306 19.9921 9.17975C19.9921 9.55645 19.8455 9.91837 19.5833 10.1889L10.7878 19.123C10.6651 19.25 10.5182 19.3512 10.3558 19.4207C10.1934 19.4902 10.0188 19.5266 9.84213 19.5278C9.66547 19.529 9.49036 19.4949 9.32707 19.4275C9.16377 19.3601 9.01558 19.2608 8.89117 19.1355L5.42242 15.6886Z" fill="#8577EE"/>
</g>
<defs>
<clipPath id="clip0_60_5">
<rect width="25" height="24.9892" fill="white" transform="translate(0 0.376465)"/>
</clipPath>
</defs>
</svg>
