<svg width="468" height="439" viewBox="0 0 468 439" fill="none" xmlns="http://www.w3.org/2000/svg">
<path d="M474.785 438.597L425.985 416.045L425.747 415.959L425.042 415.712L423.897 415.308L422.335 414.76L420.377 414.077L418.048 413.266L415.371 412.337L412.367 411.301L409.062 410.166L405.478 408.941L401.636 407.635L397.564 406.257L393.281 404.819L388.811 403.328L379.402 400.222L369.528 397.016L359.368 393.785L349.109 390.6L338.936 387.537L329.032 384.669L324.24 383.332L319.586 382.07L315.091 380.894L310.78 379.813L306.676 378.837L302.801 377.974L298.784 377.112L294.261 376.13L289.251 375.015L283.78 373.763L277.874 372.361L271.558 370.801L264.852 369.075L257.785 367.174L250.379 365.091L242.66 362.812L234.652 360.334L226.38 357.645L217.864 354.735L209.135 351.598L200.215 348.224L191.126 344.604L181.895 340.729L172.547 336.59L163.105 332.177L153.593 327.483L144.036 322.501L134.461 317.218L124.888 311.626L115.344 305.719L105.853 299.485L96.4402 292.917L87.1269 286.005L77.9425 278.74L68.9079 271.114L60.0499 263.118L51.3888 254.745L42.9549 245.981L35.1147 237.144L28.1975 228.551L22.157 220.205L16.9497 212.109L12.532 204.265L8.85791 196.676L5.88728 189.343L3.57224 182.27L1.87014 175.458L0.735687 168.908L0.12711 162.626L0 156.612L0.307334 150.868L1.0082 145.398L2.05559 140.204L3.40769 135.286L5.02012 130.648L6.84673 126.294L8.84572 122.222L10.9736 118.439L13.1841 114.944L15.433 111.742L17.6793 108.834L19.8733 106.221L21.9759 103.907L23.9418 101.895L25.7249 100.186L27.2851 98.7823L28.5736 97.6861L29.5479 96.9L30.1669 96.4271L30.3811 96.2689L30.4951 96.1467L30.8408 95.7903L31.4241 95.219L32.2512 94.4484L33.3299 93.4963L34.6638 92.3802L36.2596 91.1154L38.1254 89.7227L40.2681 88.2148L42.6911 86.6136L45.4005 84.934L48.4051 83.1926L51.7092 81.4074L55.3206 79.5972L59.2437 77.776L63.4864 75.9632L68.0537 74.1761L72.9511 72.4321L78.188 70.7461L83.7671 69.1372L89.697 67.6235L95.9831 66.2198L102.632 64.9454L109.65 63.8171L117.04 62.8515L124.814 62.0667L132.974 61.4787L141.528 61.1056L150.482 60.966L159.841 61.0734L169.613 61.4485L179.803 62.1065L190.077 62.7563L200.09 63.1005L209.84 63.1616L219.319 62.9557L228.524 62.5028L237.453 61.8196L246.101 60.9274L254.463 59.8421L262.533 58.5845L270.308 57.1705L277.785 55.6215L284.958 53.9541L291.825 52.1869L298.377 50.3387L304.615 48.4288L310.53 46.4757L316.122 44.4969L321.385 42.5117L326.312 40.5387L330.902 38.5947L335.152 36.7001L339.052 34.8732L342.603 33.1324L345.796 31.4971L348.633 29.9835L351.104 28.6126L353.206 27.4013L354.937 26.3675L356.29 25.5325L357.263 24.9136L357.849 24.5283L358.044 24.3952L358.429 24.2125L359.569 23.6869L361.444 22.8596L364.03 21.7692L367.309 20.4524L371.259 18.949L375.86 17.2983L381.088 15.5389L386.926 13.7074L393.35 11.8438L400.342 9.98721L407.877 8.17567L415.936 6.44842L424.5 4.84275L433.547 3.3979L443.053 2.15248L452.998 1.147L463.364 0.416216L474.128 0.00321963L474.785 0V438.597Z" fill="#ACA1FF"/>
<path d="M474.784 414.277L471.765 417.942L430.13 399.724L429.924 399.659L429.32 399.469L428.337 399.16L426.996 398.739L425.316 398.215L423.317 397.594L421.019 396.883L418.44 396.091L415.602 395.223L412.524 394.288L409.224 393.294L405.725 392.246L402.046 391.153L398.205 390.02L390.12 387.669L381.63 385.252L372.891 382.827L364.061 380.45L355.301 378.182L346.765 376.08L338.615 374.202L334.735 373.365L331.01 372.606L327.459 371.932L324.105 371.35L320.627 370.778L316.708 370.122L312.37 369.371L307.636 368.518L302.529 367.551L297.067 366.462L291.277 365.24L285.178 363.876L278.791 362.359L272.141 360.683L265.249 358.833L258.136 356.804L250.824 354.586L243.337 352.167L235.695 349.537L227.921 346.69L220.035 343.613L212.063 340.297L204.023 336.734L195.94 332.914L187.834 328.825L179.728 324.459L171.643 319.808L163.604 314.859L155.629 309.605L147.741 304.035L139.966 298.14L132.319 291.91L124.828 285.335L117.512 278.408L110.395 271.114L103.496 263.449L97.1277 255.68L91.5521 248.087L86.734 240.672L82.6341 233.443L79.2143 226.403L76.4317 219.557L74.2516 212.91L72.6331 206.466L71.5378 200.231L70.9275 194.207L70.7629 188.402L71.0041 182.818L71.6109 177.463L72.5478 172.336L73.7762 167.448L75.2537 162.8L76.9427 158.397L78.8068 154.245L80.8032 150.347L82.8936 146.709L85.0423 143.335L87.2076 140.229L89.352 137.397L91.4363 134.845L93.4188 132.573L95.2654 130.59L96.9344 128.9L98.3867 127.506L99.5838 126.414L100.488 125.628L101.057 125.152L101.256 124.993L101.364 124.873L101.688 124.523L102.235 123.959L103.005 123.195L104.009 122.247L105.248 121.134L106.726 119.868L108.448 118.466L110.418 116.945L112.643 115.317L115.122 113.601L117.867 111.812L120.876 109.964L124.155 108.075L127.71 106.159L131.546 104.232L135.664 102.311L140.074 100.41L144.774 98.5453L149.773 96.732L155.074 94.9874L160.68 93.3249L166.598 91.7603L172.832 90.3122L179.385 88.9939L186.263 87.8213L193.469 86.8103L201.01 85.9768L208.888 85.3361L217.107 84.9028L225.674 84.6948L234.592 84.7266L243.582 84.7451L252.361 84.4944L260.927 83.9968L269.269 83.2645L277.388 82.3184L285.275 81.177L292.928 79.8542L300.34 78.3692L307.507 76.7398L314.424 74.9825L321.088 73.1163L327.49 71.158L333.628 69.1245L339.496 67.0332L345.09 64.903L350.405 62.75L355.436 60.5918L360.177 58.4464L364.625 56.3308L368.774 54.263L372.618 52.2614L376.155 50.3406L379.378 48.5202L382.282 46.8176L384.864 45.2493L387.116 43.8336L389.036 42.5872L390.617 41.5292L391.856 40.6753L392.745 40.0435L393.283 39.6522L393.464 39.5186L393.813 39.3252L394.845 38.7729L396.541 37.8968L398.878 36.7363L401.838 35.3257L405.397 33.7039L409.538 31.9059L414.238 29.973L419.477 27.9382L425.233 25.8399L431.485 23.7155L438.216 21.6019L445.401 19.5366L453.021 17.5566L461.056 15.6994L469.484 14L474.784 13.0952V414.277Z" fill="#8577EE"/>
</svg>
