<svg width="955" height="824" viewBox="0 0 955 824" fill="none" xmlns="http://www.w3.org/2000/svg">
<path d="M295.022 794.689C249.541 833.655 200.489 825.686 142.503 810.707C10.9364 776.721 22.3869 625.324 6.69835 490.348C-15.0623 303.13 12.6518 -109.392 142.503 27.2195C159.629 45.2373 167.642 56.9725 180.807 78.0591C210.931 126.312 223.668 158.238 231.646 214.56C236.873 251.452 225.95 273.149 231.646 309.971C241.124 371.24 275.851 396.568 295.022 455.526C318.014 526.236 335.82 567.885 332.629 642.17C329.997 703.46 341.608 754.776 295.022 794.689Z" fill="#ACA1FF"/>
<path d="M241.982 742C205.647 773.125 166.459 766.759 120.133 754.795C15.0231 727.648 24.171 606.714 11.6373 498.897C-5.74756 349.35 16.3936 19.8338 120.133 128.957C133.815 143.349 140.217 152.723 150.734 169.567C174.801 208.111 184.976 233.613 191.351 278.602C195.526 308.071 186.8 325.402 191.351 354.815C198.922 403.755 226.666 423.987 241.982 471.082C260.351 527.564 274.576 560.832 272.027 620.17C269.924 669.127 279.201 710.118 241.982 742Z" fill="#8577EE"/>
<path d="M199.577 451.293V466H150.867V451.293H199.577ZM157.026 374.488V466H138.171V374.488H157.026ZM193.229 411.759V426.089H150.867V411.759H193.229ZM199.514 374.488V389.258H150.867V374.488H199.514ZM272.439 374.488L289.661 406.417L306.882 374.488H328.44L301.854 419.867L329.131 466H307.385L289.661 433.443L271.936 466H250.064L277.405 419.867L250.755 374.488H272.439ZM420.598 433.38H397.28V418.673H420.598C424.201 418.673 427.135 418.086 429.397 416.913C431.66 415.698 433.315 414.022 434.362 411.885C435.41 409.748 435.934 407.339 435.934 404.657C435.934 401.933 435.41 399.398 434.362 397.052C433.315 394.705 431.66 392.82 429.397 391.395C427.135 389.971 424.201 389.258 420.598 389.258H403.817V466H384.961V374.488H420.598C427.763 374.488 433.902 375.787 439.013 378.385C444.167 380.941 448.106 384.482 450.83 389.007C453.553 393.532 454.915 398.707 454.915 404.531C454.915 410.439 453.553 415.551 450.83 419.867C448.106 424.183 444.167 427.514 439.013 429.86C433.902 432.207 427.763 433.38 420.598 433.38ZM573.093 451.293V466H527.023V451.293H573.093ZM533.12 374.488V466H514.264V374.488H533.12ZM701.265 418.107V422.444C701.265 429.399 700.323 435.643 698.437 441.174C696.552 446.705 693.891 451.418 690.455 455.315C687.019 459.17 682.913 462.124 678.136 464.177C673.401 466.23 668.143 467.257 662.36 467.257C656.62 467.257 651.361 466.23 646.585 464.177C641.85 462.124 637.743 459.17 634.266 455.315C630.788 451.418 628.085 446.705 626.158 441.174C624.272 435.643 623.329 429.399 623.329 422.444V418.107C623.329 411.11 624.272 404.866 626.158 399.377C628.043 393.846 630.704 389.133 634.14 385.236C637.618 381.339 641.724 378.364 646.459 376.311C651.236 374.258 656.494 373.231 662.235 373.231C668.017 373.231 673.276 374.258 678.01 376.311C682.787 378.364 686.893 381.339 690.329 385.236C693.807 389.133 696.489 393.846 698.374 399.377C700.302 404.866 701.265 411.11 701.265 418.107ZM682.221 422.444V417.981C682.221 413.121 681.781 408.847 680.901 405.16C680.022 401.472 678.723 398.372 677.005 395.858C675.287 393.344 673.192 391.458 670.72 390.201C668.247 388.902 665.419 388.253 662.235 388.253C659.05 388.253 656.222 388.902 653.75 390.201C651.319 391.458 649.245 393.344 647.527 395.858C645.851 398.372 644.573 401.472 643.693 405.16C642.813 408.847 642.373 413.121 642.373 417.981V422.444C642.373 427.262 642.813 431.536 643.693 435.266C644.573 438.953 645.872 442.075 647.59 444.63C649.308 447.145 651.403 449.051 653.875 450.35C656.347 451.649 659.176 452.298 662.36 452.298C665.545 452.298 668.373 451.649 670.845 450.35C673.317 449.051 675.392 447.145 677.068 444.63C678.744 442.075 680.022 438.953 680.901 435.266C681.781 431.536 682.221 427.262 682.221 422.444ZM761.181 374.488H795.309C802.306 374.488 808.319 375.536 813.347 377.631C818.417 379.726 822.314 382.826 825.038 386.933C827.761 391.039 829.123 396.088 829.123 402.08C829.123 406.982 828.285 411.193 826.609 414.713C824.975 418.191 822.649 421.103 819.632 423.449C816.658 425.754 813.159 427.598 809.136 428.98L803.165 432.123H773.499L773.374 417.416H795.435C798.745 417.416 801.489 416.829 803.668 415.656C805.847 414.483 807.481 412.849 808.571 410.753C809.702 408.658 810.268 406.228 810.268 403.463C810.268 400.53 809.723 397.995 808.633 395.858C807.544 393.721 805.889 392.087 803.668 390.955C801.447 389.824 798.661 389.258 795.309 389.258H780.036V466H761.181V374.488ZM812.342 466L791.475 425.209L811.399 425.084L832.517 465.12V466H812.342ZM951.387 451.293V466H902.677V451.293H951.387ZM908.836 374.488V466H889.981V374.488H908.836ZM945.039 411.759V426.089H902.677V411.759H945.039ZM951.324 374.488V389.258H902.677V374.488H951.324Z" fill="#D8D2FF" fill-opacity="0.3"/>
</svg>
