<svg width="1436" height="681" viewBox="0 0 1436 681" fill="none" xmlns="http://www.w3.org/2000/svg">
<path d="M-12 71.3C16.4395 64.7604 97.2075 35.8771 134.179 71.3C171.15 106.723 123.372 121.437 212.672 179.749C301.972 238.06 362.832 263.129 367.382 353.048C371.933 442.968 333.824 444.603 449.857 536.702C565.89 628.802 574.422 668.585 702.968 678.939C831.515 689.293 1216.58 621.717 1291.1 569.945C1365.61 518.173 1380.4 482.751 1435 551.417" stroke="#8577EE" stroke-opacity="0.08" stroke-width="2" stroke-linecap="round" stroke-linejoin="round"/>
<path d="M-12 18.3C16.4395 11.7604 97.2075 -17.1229 134.179 18.3C171.15 53.7229 123.372 68.4371 212.672 126.749C301.972 185.06 362.832 210.129 367.382 300.048C371.933 389.968 333.824 391.603 449.857 483.702C565.89 575.802 574.422 615.585 702.968 625.939C831.515 636.293 1216.58 568.717 1291.1 516.945C1365.61 465.173 1380.4 429.751 1435 498.417" stroke="#8577EE" stroke-opacity="0.08" stroke-width="2" stroke-linecap="round" stroke-linejoin="round"/>
</svg>
